<?xml version="1.0" encoding="UTF-8"?>
<svg id="Layer_2" data-name="Layer 2" xmlns="http://www.w3.org/2000/svg" viewBox="0 0 557.91 132.4">
  <defs>
    <style>
      .cls-1 {
        fill: #e4ded3;
      }

      .cls-2 {
        fill: #fd9252;
      }
    </style>
  </defs>
  <g id="Swatch_Info_Layer" data-name="Swatch Info Layer">
    <g>
      <g>
        <path class="cls-2" d="M114.87,38.53c4.26,1.44,8.45,3.13,12.5,5.06.99.47,2.05-.54,1.65-1.56-2.93-7.38-7.29-13.95-12.64-19.58-.81-.86-2.23-.15-2.08,1.03.59,4.54.51,9.13-.23,13.72-.09.58.24,1.15.8,1.34Z"/>
        <path class="cls-2" d="M21.27,44.02c21.81-11.27,48.6-14.85,74.02-10.51.68.12,1.33-.35,1.42-1.03,1.04-8.62-.96-17.21-6.49-25.02h0c-1.56-2.2-3.81-3.85-6.4-4.61-12.49-3.65-25.5-3.9-36.64-.06C23.39,10.97,4.14,31.91.02,56.71c0,.01,0,.03,0,.04-.19,1.17,1.26,1.88,2.08,1.02,4.67-4.92,11.07-9.57,19.18-13.75Z"/>
        <path class="cls-2" d="M12.03,86.05c5.58,7.87,19.56,7.9,39.45-2.42,17.88-9.27,31.22-20.97,38.63-33.26.46-.77-.01-1.78-.91-1.87-20.58-2.1-41.7,1.18-59.53,10.37-17.15,8.84-23.45,18.98-17.64,27.17Z"/>
        <path class="cls-2" d="M110.39,52.84c-.58-.18-1.2.09-1.46.64-8.09,16.84-24.63,32.59-47.57,44.44-19.62,10.04-35.71,12.23-47.63,8.15-1.12-.38-2.09.88-1.4,1.84,4.12,5.77,9.11,10.9,14.86,15.07,7.03,5.1,15.25,8.89,23.92,9.37,8.67.48,17.78-2.74,23.18-9.54,5.69-7.17,6.95-17.58,14.07-23.33,5.73-4.64,13.72-4.96,20.64-7.53,11.9-4.41,21.19-16.01,23.24-28.49.08-.5-.16-1.01-.6-1.26-6.76-3.93-13.87-7.03-21.24-9.36Z"/>
      </g>
      <g>
        <path class="cls-1" d="M165.97,40.5h10.75v53.73h-10.75v-53.73Z"/>
        <path class="cls-1" d="M201.4,40.5h12.69l20.63,53.73h-11.76l-3.82-10.43h-23.13l-3.74,10.43h-11.6l20.71-53.73ZM215.49,73.91l-7.86-21.57-7.94,21.57h15.81Z"/>
        <path class="cls-1" d="M252.08,78.35h11.06c0,4.05,4.05,7.24,9.19,7.24,4.75,0,8.64-2.57,8.64-6.23,0-9.42-28.03-5.22-28.03-23.52,0-9.89,8.41-16.27,19-16.27s19.23,6.93,19.23,16.12h-11.06c0-3.74-3.58-6.54-8.33-6.54-4.2,0-7.79,2.26-7.79,5.84,0,9.58,28.03,4.52,28.03,23.13,0,10.36-8.72,17.05-19.78,17.05s-20.17-7.32-20.17-16.82Z"/>
        <path class="cls-1" d="M295.68,74.37c0-11.84,9.19-20.79,21.34-20.79,10.59,0,18.84,6.77,20.4,16.2h-10.75c-1.32-3.82-5.06-6.38-9.66-6.38-6.23,0-10.9,4.75-10.9,10.98s4.67,10.98,10.9,10.98c4.59,0,8.33-2.57,9.66-6.38h10.75c-1.56,9.42-9.81,16.2-20.4,16.2-12.15,0-21.34-8.95-21.34-20.79Z"/>
        <path class="cls-1" d="M343.17,38.17h10.12v21.02c3.11-3.66,7.47-5.61,12.61-5.61,9.34,0,15.49,6.07,15.49,15.42v12.07c0,2.1,1.25,3.35,3.35,3.35h.86v9.81h-2.88c-7.55,0-11.45-3.74-11.45-10.98v-10.98c0-5.37-3.43-8.88-8.64-8.88-5.61,0-9.34,3.58-9.34,9.03v21.8h-10.12v-56.06Z"/>
        <path class="cls-1" d="M387.4,74.37c0-11.84,9.19-20.79,21.34-20.79s21.34,8.95,21.34,20.79-9.19,20.79-21.34,20.79-21.34-8.95-21.34-20.79ZM419.63,74.37c0-6.23-4.59-10.98-10.9-10.98s-10.9,4.75-10.9,10.98,4.67,10.98,10.9,10.98,10.9-4.75,10.9-10.98Z"/>
        <path class="cls-1" d="M433.33,74.37c0-11.84,9.19-20.79,21.34-20.79s21.34,8.95,21.34,20.79-9.19,20.79-21.34,20.79-21.34-8.95-21.34-20.79ZM465.57,74.37c0-6.23-4.59-10.98-10.9-10.98s-10.9,4.75-10.9,10.98,4.67,10.98,10.9,10.98,10.9-4.75,10.9-10.98Z"/>
        <path class="cls-1" d="M479.19,86.13c2.57-1.09,4.98-2.41,7.16-4.05-4.13-6.07-6.46-14.17-6.46-23.28,0-13.86,6.23-21.57,15.57-21.57s14.79,7.01,14.79,19c0,9.34-3.5,18.53-9.58,25.7,2.49,1.64,5.29,2.49,8.41,2.49h2.41v9.81h-2.96c-6,0-11.29-1.87-15.65-5.14-2.96,2.1-6.23,3.89-9.81,5.14l-3.89-8.1ZM493.98,74.3c3.74-5.29,5.84-11.52,5.84-18.06,0-6-1.71-9.19-4.52-9.19-3.04,0-4.98,3.5-4.98,11.06,0,6.15,1.32,11.76,3.66,16.2Z"/>
        <path class="cls-1" d="M526.14,88.78l-2.26,5.45h-10.43l17.13-39.71h11.6c1.79,10.28,15.73,10.12,15.73,24.45,0,9.58-6.23,16.2-16.43,16.2-6.23,0-11.76-2.49-15.34-6.38ZM536.18,65.03l-6.54,15.42c2.1,2.96,5.84,4.91,9.89,4.91,4.75,0,7.94-2.57,7.94-6.62,0-5.68-7.55-7.48-11.29-13.7Z"/>
      </g>
      <g>
        <path class="cls-1" d="M165.9,117.74c0-5.44,4.18-9.57,9.67-9.57,4.21,0,7.66,2.39,8.89,5.84h-2.73c-1.15-2.12-3.43-3.48-6.16-3.48-4.07,0-7.15,3.11-7.15,7.21s3.08,7.21,7.15,7.21c3.56,0,6.38-2.3,6.86-5.57h-6.19v-2.22h8.79v.8c0,5.36-4.05,9.35-9.46,9.35s-9.67-4.13-9.67-9.57Z"/>
        <path class="cls-1" d="M186.84,120.15c0-4.07,3.13-7.15,7.26-7.15s7.26,3.08,7.26,7.15c0,.32-.03.67-.05.96h-12c.4,2.41,2.33,4.07,4.9,4.07,1.9,0,3.56-.91,4.34-2.28h2.57c-1.07,2.63-3.72,4.39-6.94,4.39-4.21,0-7.34-3.08-7.34-7.15ZM189.34,119.05h9.59c-.4-2.28-2.33-3.94-4.82-3.94s-4.31,1.61-4.77,3.94Z"/>
        <path class="cls-1" d="M202.86,123.1h2.36c0,1.29,1.18,2.12,2.95,2.12,1.66,0,2.76-.78,2.76-1.88,0-2.95-7.85-1.39-7.85-6.22,0-2.49,1.98-4.13,4.96-4.13s5.04,1.61,5.04,4.05h-2.36c0-1.18-1.07-1.96-2.71-1.96s-2.57.72-2.57,1.77c0,2.87,7.85,1.34,7.85,6.24,0,2.52-2.04,4.21-5.14,4.21s-5.28-1.69-5.28-4.21Z"/>
        <path class="cls-1" d="M216.6,122.97v-7.56h-2.49v-2.09h1.61c.64,0,.99-.35.99-1.02v-2.76h2.2v3.78h3.67v2.09h-3.67v7.18c0,1.39.88,2.28,2.33,2.28h1.34v2.12h-1.66c-2.76,0-4.31-1.47-4.31-4.02Z"/>
        <path class="cls-1" d="M224.02,120.15c0-4.07,2.92-7.15,6.83-7.15,2.28,0,4.15,1.07,5.31,2.79v-2.47h2.3v13.66h-2.3v-2.46c-1.15,1.71-3.03,2.79-5.31,2.79-3.91,0-6.83-3.08-6.83-7.15ZM236.16,120.15c0-2.81-2.09-4.93-4.88-4.93s-4.9,2.12-4.9,4.93,2.09,4.93,4.9,4.93,4.88-2.12,4.88-4.93ZM230.16,109.89c-.75,0-1.31.59-1.31,1.34h-1.66c0-1.8,1.02-3.16,2.71-3.16s2.2,1.45,3.38,1.45c.75,0,1.31-.56,1.31-1.34h1.69c0,1.82-1.02,3.19-2.73,3.19s-2.2-1.47-3.38-1.47Z"/>
        <path class="cls-1" d="M240.95,120.15c0-4.07,3.13-7.15,7.29-7.15s7.26,3.08,7.26,7.15-3.13,7.15-7.26,7.15-7.29-3.08-7.29-7.15ZM253.12,120.15c0-2.81-2.09-4.93-4.88-4.93s-4.9,2.12-4.9,4.93,2.09,4.93,4.9,4.93,4.88-2.12,4.88-4.93Z"/>
        <path class="cls-1" d="M264.28,108.5h11.84v2.3h-9.38v5.73h8.49v2.3h-8.49v5.84h9.51v2.3h-11.98v-18.49Z"/>
        <path class="cls-1" d="M277.83,120.15c0-4.07,2.92-7.15,6.83-7.15,2.28,0,4.15,1.07,5.31,2.79v-8.09h2.3v19.29h-2.3v-2.46c-1.15,1.71-3.03,2.79-5.31,2.79-3.91,0-6.83-3.08-6.83-7.15ZM289.97,120.15c0-2.81-2.09-4.93-4.88-4.93s-4.9,2.12-4.9,4.93,2.09,4.93,4.9,4.93,4.88-2.12,4.88-4.93Z"/>
        <path class="cls-1" d="M295.51,121.92v-8.6h2.3v7.93c0,2.3,1.47,3.83,3.75,3.83s3.99-1.55,3.99-3.89v-7.88h2.3v13.66h-2.3v-1.98c-1.04,1.47-2.65,2.3-4.72,2.3-3.19,0-5.33-2.14-5.33-5.38Z"/>
        <path class="cls-1" d="M310.35,120.15c0-4.07,3.13-7.15,7.29-7.15,3.46,0,6.22,2.17,6.83,5.28h-2.44c-.56-1.82-2.28-3.05-4.39-3.05-2.81,0-4.9,2.12-4.9,4.93s2.09,4.93,4.9,4.93c2.12,0,3.83-1.23,4.39-3.06h2.44c-.62,3.11-3.38,5.28-6.83,5.28-4.15,0-7.29-3.08-7.29-7.15Z"/>
        <path class="cls-1" d="M326.1,120.15c0-4.07,2.92-7.15,6.83-7.15,2.28,0,4.15,1.07,5.31,2.79v-2.47h2.3v13.66h-2.3v-2.46c-1.15,1.71-3.03,2.79-5.31,2.79-3.91,0-6.83-3.08-6.83-7.15ZM338.24,120.15c0-2.81-2.09-4.93-4.88-4.93s-4.9,2.12-4.9,4.93,2.09,4.93,4.9,4.93,4.88-2.12,4.88-4.93Z"/>
        <path class="cls-1" d="M343.03,120.15c0-4.07,3.13-7.15,7.29-7.15,3.46,0,6.21,2.17,6.83,5.28h-2.44c-.56-1.82-2.28-3.05-4.39-3.05-2.81,0-4.9,2.12-4.9,4.93s2.09,4.93,4.9,4.93c2.12,0,3.83-1.23,4.39-3.06h2.44c-.62,3.11-3.38,5.28-6.83,5.28-4.15,0-7.29-3.08-7.29-7.15Z"/>
        <path class="cls-1" d="M359.26,109.19c0-.86.67-1.53,1.55-1.53s1.53.67,1.53,1.53-.67,1.53-1.53,1.53-1.55-.64-1.55-1.53ZM359.66,113.32h2.3v13.66h-2.3v-13.66Z"/>
        <path class="cls-1" d="M364.48,120.15c0-4.07,3.13-7.15,7.29-7.15s7.26,3.08,7.26,7.15-3.14,7.15-7.26,7.15-7.29-3.08-7.29-7.15ZM376.65,120.15c0-2.81-2.09-4.93-4.88-4.93s-4.9,2.12-4.9,4.93,2.09,4.93,4.9,4.93,4.88-2.12,4.88-4.93Z"/>
        <path class="cls-1" d="M381.52,113.32h2.3v2.06c1.07-1.53,2.79-2.38,4.93-2.38,3.32,0,5.55,2.2,5.55,5.55v8.44h-2.3v-7.72c0-2.44-1.55-4.05-3.99-4.05s-4.18,1.63-4.18,4.1v7.66h-2.3v-13.66Z"/>
        <path class="cls-1" d="M396.76,120.15c0-4.07,2.92-7.15,6.83-7.15,2.28,0,4.15,1.07,5.31,2.79v-2.47h2.3v13.66h-2.3v-2.46c-1.15,1.71-3.03,2.79-5.31,2.79-3.91,0-6.83-3.08-6.83-7.15ZM408.9,120.15c0-2.81-2.09-4.93-4.88-4.93s-4.9,2.12-4.9,4.93,2.09,4.93,4.9,4.93,4.88-2.12,4.88-4.93Z"/>
        <path class="cls-1" d="M414.63,107.69h2.3v19.29h-2.3v-19.29Z"/>
        <path class="cls-1" d="M426.63,108.5h2.46v18.49h-2.46v-18.49Z"/>
        <path class="cls-1" d="M432.68,113.32h2.3v2.06c1.07-1.53,2.79-2.38,4.93-2.38,3.32,0,5.55,2.2,5.55,5.55v8.44h-2.3v-7.72c0-2.44-1.55-4.05-3.99-4.05s-4.18,1.63-4.18,4.1v7.66h-2.3v-13.66Z"/>
        <path class="cls-1" d="M449.64,122.97v-7.56h-2.49v-2.09h1.61c.64,0,.99-.35.99-1.02v-2.76h2.2v3.78h3.67v2.09h-3.67v7.18c0,1.39.88,2.28,2.33,2.28h1.34v2.12h-1.66c-2.76,0-4.31-1.47-4.31-4.02Z"/>
        <path class="cls-1" d="M457,120.15c0-4.07,3.13-7.15,7.26-7.15s7.26,3.08,7.26,7.15c0,.32-.03.67-.05.96h-12c.4,2.41,2.33,4.07,4.9,4.07,1.9,0,3.56-.91,4.34-2.28h2.57c-1.07,2.63-3.72,4.39-6.94,4.39-4.21,0-7.34-3.08-7.34-7.15ZM459.49,119.05h9.59c-.4-2.28-2.33-3.94-4.82-3.94s-4.31,1.61-4.77,3.94Z"/>
        <path class="cls-1" d="M473.98,107.69h2.3v19.29h-2.3v-19.29Z"/>
        <path class="cls-1" d="M479.34,109.19c0-.86.67-1.53,1.55-1.53s1.53.67,1.53,1.53-.67,1.53-1.53,1.53-1.55-.64-1.55-1.53ZM479.74,113.32h2.3v13.66h-2.3v-13.66Z"/>
        <path class="cls-1" d="M484.64,119.83c0-3.88,2.95-6.83,6.83-6.83,2.3,0,4.18,1.04,5.33,2.71v-2.39h2.3v12.19c0,4.15-2.76,6.89-6.97,6.89-3.46,0-6.11-1.82-6.64-4.69h2.39c.45,1.55,2.17,2.57,4.29,2.57,2.81,0,4.64-1.82,4.64-4.69v-1.61c-1.15,1.66-3.03,2.71-5.33,2.71-3.88,0-6.83-2.97-6.83-6.86ZM496.81,119.83c0-2.6-2.09-4.61-4.88-4.61s-4.9,2.01-4.9,4.61,2.09,4.61,4.9,4.61,4.88-1.98,4.88-4.61Z"/>
        <path class="cls-1" d="M501.54,120.15c0-4.07,3.13-7.15,7.26-7.15s7.26,3.08,7.26,7.15c0,.32-.03.67-.05.96h-12c.4,2.41,2.33,4.07,4.9,4.07,1.9,0,3.56-.91,4.34-2.28h2.57c-1.07,2.63-3.72,4.39-6.94,4.39-4.21,0-7.34-3.08-7.34-7.15ZM504.04,119.05h9.59c-.4-2.28-2.33-3.94-4.82-3.94s-4.31,1.61-4.77,3.94Z"/>
        <path class="cls-1" d="M518.47,113.32h2.3v2.06c1.07-1.53,2.79-2.38,4.93-2.38,3.32,0,5.55,2.2,5.55,5.55v8.44h-2.3v-7.72c0-2.44-1.55-4.05-3.99-4.05s-4.18,1.63-4.18,4.1v7.66h-2.3v-13.66Z"/>
        <path class="cls-1" d="M535.43,122.97v-7.56h-2.49v-2.09h1.61c.64,0,.99-.35.99-1.02v-2.76h2.2v3.78h3.67v2.09h-3.67v7.18c0,1.39.88,2.28,2.33,2.28h1.34v2.12h-1.66c-2.76,0-4.31-1.47-4.31-4.02Z"/>
        <path class="cls-1" d="M542.79,120.15c0-4.07,3.13-7.15,7.26-7.15s7.26,3.08,7.26,7.15c0,.32-.03.67-.05.96h-12c.4,2.41,2.33,4.07,4.9,4.07,1.9,0,3.56-.91,4.34-2.28h2.57c-1.07,2.63-3.72,4.39-6.94,4.39-4.21,0-7.34-3.08-7.34-7.15ZM545.28,119.05h9.59c-.4-2.28-2.33-3.94-4.82-3.94s-4.31,1.61-4.77,3.94Z"/>
      </g>
    </g>
  </g>
</svg>